<mxfile host="app.diagrams.net" agent="Mozilla/5.0 (X11; Linux x86_64) AppleWebKit/537.36 (KHTML, like Gecko) Chrome/129.0.0.0 Safari/537.36" version="24.7.16">
  <diagram id="C5RBs43oDa-KdzZeNtuy" name="Page-1">
    <mxGraphModel dx="1120" dy="485" grid="1" gridSize="10" guides="1" tooltips="1" connect="1" arrows="1" fold="1" page="1" pageScale="1" pageWidth="827" pageHeight="1169" math="0" shadow="0">
      <root>
        <mxCell id="WIyWlLk6GJQsqaUBKTNV-0" />
        <mxCell id="WIyWlLk6GJQsqaUBKTNV-1" parent="WIyWlLk6GJQsqaUBKTNV-0" />
        <mxCell id="IxfPmBUfZ57gSlpZKha0-1" value="Agregar un nuevo proyecto" style="swimlane;whiteSpace=wrap;html=1;" parent="WIyWlLk6GJQsqaUBKTNV-1" vertex="1">
          <mxGeometry x="74" y="50" width="680" height="760" as="geometry" />
        </mxCell>
        <mxCell id="IxfPmBUfZ57gSlpZKha0-3" style="edgeStyle=orthogonalEdgeStyle;rounded=0;orthogonalLoop=1;jettySize=auto;html=1;entryX=0.5;entryY=0;entryDx=0;entryDy=0;" parent="IxfPmBUfZ57gSlpZKha0-1" target="WIyWlLk6GJQsqaUBKTNV-12" edge="1">
          <mxGeometry relative="1" as="geometry">
            <mxPoint x="373" y="100" as="sourcePoint" />
            <mxPoint x="373" y="130" as="targetPoint" />
          </mxGeometry>
        </mxCell>
        <mxCell id="IxfPmBUfZ57gSlpZKha0-2" value="" style="strokeWidth=2;html=1;shape=mxgraph.flowchart.start_2;whiteSpace=wrap;fillColor=#080000;" parent="IxfPmBUfZ57gSlpZKha0-1" vertex="1">
          <mxGeometry x="353" y="60" width="40" height="40" as="geometry" />
        </mxCell>
        <mxCell id="aJAZwXbiSQhVFRsb7MQU-2" value="" style="edgeStyle=orthogonalEdgeStyle;rounded=0;orthogonalLoop=1;jettySize=auto;html=1;" edge="1" parent="IxfPmBUfZ57gSlpZKha0-1" source="WIyWlLk6GJQsqaUBKTNV-12" target="aJAZwXbiSQhVFRsb7MQU-1">
          <mxGeometry relative="1" as="geometry" />
        </mxCell>
        <mxCell id="WIyWlLk6GJQsqaUBKTNV-12" value="Iniciar sesion" style="rounded=1;whiteSpace=wrap;html=1;fontSize=12;glass=0;strokeWidth=1;shadow=0;" parent="IxfPmBUfZ57gSlpZKha0-1" vertex="1">
          <mxGeometry x="328" y="140" width="90" height="40" as="geometry" />
        </mxCell>
        <mxCell id="aJAZwXbiSQhVFRsb7MQU-4" value="" style="edgeStyle=orthogonalEdgeStyle;rounded=0;orthogonalLoop=1;jettySize=auto;html=1;" edge="1" parent="IxfPmBUfZ57gSlpZKha0-1" source="aJAZwXbiSQhVFRsb7MQU-1" target="aJAZwXbiSQhVFRsb7MQU-3">
          <mxGeometry relative="1" as="geometry">
            <mxPoint x="373" y="340" as="targetPoint" />
          </mxGeometry>
        </mxCell>
        <mxCell id="aJAZwXbiSQhVFRsb7MQU-1" value="Añadir nuevo proyecto" style="rounded=1;whiteSpace=wrap;html=1;fontSize=12;glass=0;strokeWidth=1;shadow=0;" vertex="1" parent="IxfPmBUfZ57gSlpZKha0-1">
          <mxGeometry x="328" y="260" width="90" height="40" as="geometry" />
        </mxCell>
        <mxCell id="aJAZwXbiSQhVFRsb7MQU-8" style="edgeStyle=orthogonalEdgeStyle;rounded=0;orthogonalLoop=1;jettySize=auto;html=1;exitX=0.5;exitY=1;exitDx=0;exitDy=0;" edge="1" parent="IxfPmBUfZ57gSlpZKha0-1" source="aJAZwXbiSQhVFRsb7MQU-3">
          <mxGeometry relative="1" as="geometry">
            <mxPoint x="373" y="410" as="targetPoint" />
          </mxGeometry>
        </mxCell>
        <mxCell id="aJAZwXbiSQhVFRsb7MQU-3" value="agregar detalles del proyecto" style="rounded=1;whiteSpace=wrap;html=1;fontSize=12;glass=0;strokeWidth=1;shadow=0;" vertex="1" parent="IxfPmBUfZ57gSlpZKha0-1">
          <mxGeometry x="328" y="340" width="90" height="40" as="geometry" />
        </mxCell>
        <mxCell id="aJAZwXbiSQhVFRsb7MQU-7" value="" style="shape=link;html=1;rounded=0;" edge="1" parent="IxfPmBUfZ57gSlpZKha0-1">
          <mxGeometry width="100" relative="1" as="geometry">
            <mxPoint x="246" y="410" as="sourcePoint" />
            <mxPoint x="486" y="410" as="targetPoint" />
          </mxGeometry>
        </mxCell>
        <mxCell id="aJAZwXbiSQhVFRsb7MQU-15" style="edgeStyle=orthogonalEdgeStyle;rounded=0;orthogonalLoop=1;jettySize=auto;html=1;" edge="1" parent="IxfPmBUfZ57gSlpZKha0-1" source="aJAZwXbiSQhVFRsb7MQU-9">
          <mxGeometry relative="1" as="geometry">
            <mxPoint x="283" y="520" as="targetPoint" />
          </mxGeometry>
        </mxCell>
        <mxCell id="aJAZwXbiSQhVFRsb7MQU-9" value="Asignar investigador" style="rounded=1;whiteSpace=wrap;html=1;fontSize=12;glass=0;strokeWidth=1;shadow=0;" vertex="1" parent="IxfPmBUfZ57gSlpZKha0-1">
          <mxGeometry x="238" y="440" width="90" height="40" as="geometry" />
        </mxCell>
        <mxCell id="aJAZwXbiSQhVFRsb7MQU-14" style="edgeStyle=orthogonalEdgeStyle;rounded=0;orthogonalLoop=1;jettySize=auto;html=1;" edge="1" parent="IxfPmBUfZ57gSlpZKha0-1" source="aJAZwXbiSQhVFRsb7MQU-10">
          <mxGeometry relative="1" as="geometry">
            <mxPoint x="438" y="520" as="targetPoint" />
          </mxGeometry>
        </mxCell>
        <mxCell id="aJAZwXbiSQhVFRsb7MQU-10" value="Asociar línea investigación" style="rounded=1;whiteSpace=wrap;html=1;fontSize=12;glass=0;strokeWidth=1;shadow=0;" vertex="1" parent="IxfPmBUfZ57gSlpZKha0-1">
          <mxGeometry x="393" y="440" width="90" height="40" as="geometry" />
        </mxCell>
        <mxCell id="aJAZwXbiSQhVFRsb7MQU-11" style="edgeStyle=orthogonalEdgeStyle;rounded=0;orthogonalLoop=1;jettySize=auto;html=1;" edge="1" parent="IxfPmBUfZ57gSlpZKha0-1" target="aJAZwXbiSQhVFRsb7MQU-9">
          <mxGeometry relative="1" as="geometry">
            <mxPoint x="359" y="540" as="targetPoint" />
            <mxPoint x="286" y="410" as="sourcePoint" />
          </mxGeometry>
        </mxCell>
        <mxCell id="aJAZwXbiSQhVFRsb7MQU-12" style="edgeStyle=orthogonalEdgeStyle;rounded=0;orthogonalLoop=1;jettySize=auto;html=1;" edge="1" parent="IxfPmBUfZ57gSlpZKha0-1" target="aJAZwXbiSQhVFRsb7MQU-10">
          <mxGeometry relative="1" as="geometry">
            <mxPoint x="353" y="580" as="targetPoint" />
            <mxPoint x="456" y="410" as="sourcePoint" />
            <Array as="points">
              <mxPoint x="456" y="460" />
            </Array>
          </mxGeometry>
        </mxCell>
        <mxCell id="aJAZwXbiSQhVFRsb7MQU-13" value="" style="shape=link;html=1;rounded=0;" edge="1" parent="IxfPmBUfZ57gSlpZKha0-1">
          <mxGeometry width="100" relative="1" as="geometry">
            <mxPoint x="243" y="520" as="sourcePoint" />
            <mxPoint x="483" y="520" as="targetPoint" />
          </mxGeometry>
        </mxCell>
        <mxCell id="aJAZwXbiSQhVFRsb7MQU-17" value="" style="endArrow=classic;html=1;rounded=0;" edge="1" parent="IxfPmBUfZ57gSlpZKha0-1" target="aJAZwXbiSQhVFRsb7MQU-18">
          <mxGeometry width="50" height="50" relative="1" as="geometry">
            <mxPoint x="372.5" y="520" as="sourcePoint" />
            <mxPoint x="372.5" y="570" as="targetPoint" />
          </mxGeometry>
        </mxCell>
        <mxCell id="aJAZwXbiSQhVFRsb7MQU-18" value="Verificar estado del proyecto" style="rounded=1;whiteSpace=wrap;html=1;fontSize=12;glass=0;strokeWidth=1;shadow=0;" vertex="1" parent="IxfPmBUfZ57gSlpZKha0-1">
          <mxGeometry x="328" y="570" width="90" height="40" as="geometry" />
        </mxCell>
        <mxCell id="aJAZwXbiSQhVFRsb7MQU-21" value="" style="edgeStyle=orthogonalEdgeStyle;rounded=0;orthogonalLoop=1;jettySize=auto;html=1;" edge="1" parent="IxfPmBUfZ57gSlpZKha0-1" source="aJAZwXbiSQhVFRsb7MQU-19" target="IxfPmBUfZ57gSlpZKha0-43">
          <mxGeometry relative="1" as="geometry" />
        </mxCell>
        <mxCell id="aJAZwXbiSQhVFRsb7MQU-19" value="Guardar proyecto" style="rounded=1;whiteSpace=wrap;html=1;fontSize=12;glass=0;strokeWidth=1;shadow=0;" vertex="1" parent="IxfPmBUfZ57gSlpZKha0-1">
          <mxGeometry x="328" y="640" width="90" height="40" as="geometry" />
        </mxCell>
        <mxCell id="aJAZwXbiSQhVFRsb7MQU-20" value="" style="edgeStyle=orthogonalEdgeStyle;rounded=0;orthogonalLoop=1;jettySize=auto;html=1;" edge="1" parent="IxfPmBUfZ57gSlpZKha0-1" source="aJAZwXbiSQhVFRsb7MQU-18" target="aJAZwXbiSQhVFRsb7MQU-19">
          <mxGeometry relative="1" as="geometry" />
        </mxCell>
        <mxCell id="IxfPmBUfZ57gSlpZKha0-11" style="edgeStyle=orthogonalEdgeStyle;rounded=0;orthogonalLoop=1;jettySize=auto;html=1;entryX=1;entryY=0.5;entryDx=0;entryDy=0;" parent="IxfPmBUfZ57gSlpZKha0-1" source="WIyWlLk6GJQsqaUBKTNV-12" target="IxfPmBUfZ57gSlpZKha0-10" edge="1">
          <mxGeometry relative="1" as="geometry">
            <mxPoint x="261" y="160" as="sourcePoint" />
          </mxGeometry>
        </mxCell>
        <mxCell id="IxfPmBUfZ57gSlpZKha0-9" value="" style="shape=umlDestroy;whiteSpace=wrap;html=1;strokeWidth=3;targetShapes=umlLifeline;" parent="IxfPmBUfZ57gSlpZKha0-1" vertex="1">
          <mxGeometry x="191" y="145" width="30" height="30" as="geometry" />
        </mxCell>
        <mxCell id="IxfPmBUfZ57gSlpZKha0-10" value="" style="ellipse;whiteSpace=wrap;html=1;aspect=fixed;fillColor=none;" parent="IxfPmBUfZ57gSlpZKha0-1" vertex="1">
          <mxGeometry x="186" y="140" width="40" height="40" as="geometry" />
        </mxCell>
        <mxCell id="IxfPmBUfZ57gSlpZKha0-43" value="" style="ellipse;html=1;shape=endState;fillColor=#000000;strokeColor=#ff0000;" parent="IxfPmBUfZ57gSlpZKha0-1" vertex="1">
          <mxGeometry x="358" y="710" width="30" height="30" as="geometry" />
        </mxCell>
      </root>
    </mxGraphModel>
  </diagram>
</mxfile>
